<mxfile host="drawio-plugin" agent="Mozilla/5.0 (Windows NT 10.0; Win64; x64) AppleWebKit/537.36 (KHTML, like Gecko) Chrome/122.0.0.0 Safari/537.36" modified="2024-09-04T12:52:43.299Z" etag="WRe6XyqY9n54h03LqbHN" version="22.1.22" type="embed" pages="2">
  <diagram id="23iRSUPoRavnBvh4doch" name="Clase Monitor">
    <mxGraphModel dx="292" dy="536" grid="1" gridSize="10" guides="1" tooltips="1" connect="1" arrows="1" fold="1" page="1" pageScale="1" pageWidth="827" pageHeight="1169" math="0" shadow="0">
      <root>
        <mxCell id="0" />
        <mxCell id="1" parent="0" />
        <mxCell id="2" value="Monitor&lt;br&gt;" style="swimlane;fontStyle=1;align=center;verticalAlign=top;childLayout=stackLayout;horizontal=1;startSize=26;horizontalStack=0;resizeParent=1;resizeParentMax=0;resizeLast=0;collapsible=1;marginBottom=0;whiteSpace=wrap;html=1;" parent="1" vertex="1">
          <mxGeometry x="40" y="40" width="250" height="490" as="geometry" />
        </mxCell>
        <mxCell id="3" value="&amp;lt;&amp;lt; Atributos &amp;gt;&amp;gt;&lt;br&gt;&lt;br&gt;- _marca : str&lt;br&gt;- _tamanio : float&lt;br&gt;- _tipoPantalla : str&lt;br&gt;- _tipoConexion : str" style="text;strokeColor=none;fillColor=none;align=left;verticalAlign=top;spacingLeft=4;spacingRight=4;overflow=hidden;rotatable=0;points=[[0,0.5],[1,0.5]];portConstraint=eastwest;whiteSpace=wrap;html=1;" parent="2" vertex="1">
          <mxGeometry y="26" width="250" height="104" as="geometry" />
        </mxCell>
        <mxCell id="4" value="" style="line;strokeWidth=1;fillColor=none;align=left;verticalAlign=middle;spacingTop=-1;spacingLeft=3;spacingRight=3;rotatable=0;labelPosition=right;points=[];portConstraint=eastwest;strokeColor=inherit;" parent="2" vertex="1">
          <mxGeometry y="130" width="250" height="8" as="geometry" />
        </mxCell>
        <mxCell id="5" value="&amp;lt;&amp;lt; Constructor &amp;gt;&amp;gt;&lt;br&gt;&lt;br&gt;+ __init__(self, marca, tamanio, tipoPantalla, tipoConexion)&lt;br&gt;&lt;br&gt;&lt;br&gt;&amp;lt;&amp;lt; Métodos de consulta &amp;gt;&amp;gt;&lt;br&gt;&lt;br&gt;+ getMarca() : str&lt;br&gt;+ getTamanio() : float&lt;br&gt;+ getTipoPantalla() : str&lt;br&gt;+ getTipoConexion() : str&lt;br&gt;&lt;br&gt;&lt;br&gt;&amp;lt;&amp;lt; Comandos de Modificación &amp;gt;&amp;gt;&lt;br&gt;&lt;br&gt;+ setMarca(nuevoModelo : str)&lt;br style=&quot;border-color: var(--border-color);&quot;&gt;+ setTamanio(nuevoTamanio : float)&lt;br style=&quot;border-color: var(--border-color);&quot;&gt;+setTipoPantalla(nuevoTipoPantalla : str)&lt;br style=&quot;border-color: var(--border-color);&quot;&gt;+ setTipoConexion(nuevoTipoConexion : str)" style="text;strokeColor=none;fillColor=none;align=left;verticalAlign=top;spacingLeft=4;spacingRight=4;overflow=hidden;rotatable=0;points=[[0,0.5],[1,0.5]];portConstraint=eastwest;whiteSpace=wrap;html=1;" parent="2" vertex="1">
          <mxGeometry y="138" width="250" height="352" as="geometry" />
        </mxCell>
        <mxCell id="19" style="edgeStyle=orthogonalEdgeStyle;rounded=0;orthogonalLoop=1;jettySize=auto;html=1;exitX=0;exitY=0.5;exitDx=0;exitDy=0;exitPerimeter=0;" parent="1" source="18" edge="1">
          <mxGeometry relative="1" as="geometry">
            <mxPoint x="300" y="120" as="targetPoint" />
          </mxGeometry>
        </mxCell>
        <mxCell id="18" value="El tamaño del monitor puede ser un float (como acá, refiriéndose a las pulgadas) o un str (si ponemos una resolución específica)" style="shape=note;whiteSpace=wrap;html=1;backgroundOutline=1;darkOpacity=0.05;" parent="1" vertex="1">
          <mxGeometry x="360" y="60" width="280" height="120" as="geometry" />
        </mxCell>
      </root>
    </mxGraphModel>
  </diagram>
  <diagram id="sefUCC0OhCs1N77oSjA7" name="Clase Teclado">
    <mxGraphModel dx="292" dy="536" grid="1" gridSize="10" guides="1" tooltips="1" connect="1" arrows="1" fold="1" page="1" pageScale="1" pageWidth="827" pageHeight="1169" math="0" shadow="0">
      <root>
        <mxCell id="0" />
        <mxCell id="1" parent="0" />
        <mxCell id="puK1TJbtTNZW50JBzEjT-1" value="Teclado" style="swimlane;fontStyle=1;align=center;verticalAlign=top;childLayout=stackLayout;horizontal=1;startSize=26;horizontalStack=0;resizeParent=1;resizeParentMax=0;resizeLast=0;collapsible=1;marginBottom=0;whiteSpace=wrap;html=1;" parent="1" vertex="1">
          <mxGeometry x="40" y="40" width="250" height="466" as="geometry" />
        </mxCell>
        <mxCell id="puK1TJbtTNZW50JBzEjT-2" value="&amp;lt;&amp;lt; Atributos &amp;gt;&amp;gt;&lt;br&gt;&lt;br&gt;- marca : str&lt;br&gt;- lenguaje : str&lt;br&gt;- incluyeNumPad : bool&lt;br&gt;- incluyeRetroIlum : bool" style="text;strokeColor=none;fillColor=none;align=left;verticalAlign=top;spacingLeft=4;spacingRight=4;overflow=hidden;rotatable=0;points=[[0,0.5],[1,0.5]];portConstraint=eastwest;whiteSpace=wrap;html=1;" parent="puK1TJbtTNZW50JBzEjT-1" vertex="1">
          <mxGeometry y="26" width="250" height="124" as="geometry" />
        </mxCell>
        <mxCell id="puK1TJbtTNZW50JBzEjT-3" value="" style="line;strokeWidth=1;fillColor=none;align=left;verticalAlign=middle;spacingTop=-1;spacingLeft=3;spacingRight=3;rotatable=0;labelPosition=right;points=[];portConstraint=eastwest;strokeColor=inherit;" parent="puK1TJbtTNZW50JBzEjT-1" vertex="1">
          <mxGeometry y="150" width="250" height="8" as="geometry" />
        </mxCell>
        <mxCell id="puK1TJbtTNZW50JBzEjT-4" value="&amp;lt;&amp;lt; Constructor &amp;gt;&amp;gt;&lt;br&gt;&lt;br&gt;+ __init__(self, marca, lenguaje, incluyeNumpad, incluyeRetroIlum)&lt;br&gt;&lt;br&gt;&amp;lt;&amp;lt; Comandos de Consulta&amp;gt;&amp;gt;&lt;br&gt;&lt;br&gt;+ getMarca() : str&lt;br&gt;+ getLenguaje() : str&lt;br&gt;+ getNumPad() : bool&lt;br&gt;+ getRetroIlum() : bool&lt;br&gt;&lt;br&gt;&amp;lt;&amp;lt; Comandos de Modificación &amp;gt;&amp;gt;&lt;br&gt;&lt;br&gt;+ setMarca(nuevaMarca : str)&lt;br&gt;+ setLenguaje(nuevoLenguaje : str)&lt;br&gt;+ setNumPad (estadoNumpad : bool)&lt;br&gt;+ setRetroIlum(estadoRetroIlum : bool)" style="text;strokeColor=none;fillColor=none;align=left;verticalAlign=top;spacingLeft=4;spacingRight=4;overflow=hidden;rotatable=0;points=[[0,0.5],[1,0.5]];portConstraint=eastwest;whiteSpace=wrap;html=1;" parent="puK1TJbtTNZW50JBzEjT-1" vertex="1">
          <mxGeometry y="158" width="250" height="308" as="geometry" />
        </mxCell>
        <mxCell id="puK1TJbtTNZW50JBzEjT-5" value="Los dos últimos atributos son booleanos porque representan un estado &lt;b&gt;(si tienen o no una característica, no la caraterística en sí)&lt;/b&gt;." style="shape=note;whiteSpace=wrap;html=1;backgroundOutline=1;darkOpacity=0.05;" parent="1" vertex="1">
          <mxGeometry x="360" y="70" width="340" height="120" as="geometry" />
        </mxCell>
        <mxCell id="puK1TJbtTNZW50JBzEjT-6" style="edgeStyle=orthogonalEdgeStyle;rounded=0;orthogonalLoop=1;jettySize=auto;html=1;exitX=0;exitY=0.5;exitDx=0;exitDy=0;exitPerimeter=0;entryX=1.006;entryY=0.681;entryDx=0;entryDy=0;entryPerimeter=0;" parent="1" source="puK1TJbtTNZW50JBzEjT-5" target="puK1TJbtTNZW50JBzEjT-2" edge="1">
          <mxGeometry relative="1" as="geometry" />
        </mxCell>
      </root>
    </mxGraphModel>
  </diagram>
</mxfile>
